<svg width="574" height="147" viewBox="0 0 574 147" fill="none" xmlns="http://www.w3.org/2000/svg">
<g clip-path="url(#clip0_1_2)">
<path d="M89.17 21.31C94.842 21.31 99.44 16.712 99.44 11.04C99.44 5.36803 94.842 0.769989 89.17 0.769989C83.498 0.769989 78.9 5.36803 78.9 11.04C78.9 16.712 83.498 21.31 89.17 21.31Z" fill="#3658FF"/>
<path d="M67.53 45.87C62.55 43.88 61.58 50.36 61.54 53.43C61.4733 58.0567 61.46 63 61.5 68.26C61.5333 72.1 62.66 75.37 64.88 78.07C67.02 80.67 69.81 82.54 71.38 85.62C73.6067 89.9667 73.69 94.2867 71.63 98.58C65.5 111.38 46.66 109.26 43.66 95.24C42.55 90.04 44.43 84.65 48.51 81.21C52.49 77.85 54.88 74.11 54.87 68.56C54.8633 62.9067 54.8433 57.5667 54.81 52.54C54.78 48.1 52.26 44.25 48.85 41.44C39.95 34.11 42.16 20.22 53.08 16.07C58.58 13.99 64.64 15.41 68.72 19.49C72.0733 22.8433 73.49 27.0733 72.97 32.18C72.38 38.03 74.81 42.34 78.87 46.24C88.6033 55.6 97.8533 64.72 106.62 73.6C108.99 76 114.41 79.69 116.68 75.12C117.513 73.44 117.953 71.62 118 69.66C118.127 63.8067 118.127 58.15 118 52.69C117.9 48.31 115.58 44.35 112.23 41.65C102.98 34.19 105.22 19.82 116.75 15.88C122.67 13.86 129.43 15.89 133.09 20.87C137.27 26.57 137.363 32.5033 133.37 38.67C132.79 39.5767 132.08 40.3667 131.24 41.04C126.69 44.68 124.62 48.76 124.65 54.63C124.677 59.8433 124.71 64.6733 124.75 69.12C124.783 72.66 125.903 75.6833 128.11 78.19C130.14 80.5 132.96 82.5 134.36 85.21C137.1 90.5233 136.887 95.6133 133.72 100.48C130.68 105.15 124.96 107.77 119.44 106.95C112.3 105.88 106.08 99.81 106.52 92.02C106.86 86.05 105.8 82.19 101.58 77.91C91.2133 67.4167 81.3733 57.7033 72.06 48.77C70.7533 47.5167 69.2433 46.55 67.53 45.87Z" fill="#1F1C5C"/>
<path d="M148.71 31.95C151.659 31.95 154.05 29.5592 154.05 26.61C154.05 23.6608 151.659 21.27 148.71 21.27C145.761 21.27 143.37 23.6608 143.37 26.61C143.37 29.5592 145.761 31.95 148.71 31.95Z" fill="#3658FF"/>
<path d="M21.28 47.08C27.1674 47.08 31.94 42.3074 31.94 36.42C31.94 30.5327 27.1674 25.76 21.28 25.76C15.3926 25.76 10.62 30.5327 10.62 36.42C10.62 42.3074 15.3926 47.08 21.28 47.08Z" fill="#3658FF"/>
<path d="M91.73 44.74C95.2757 44.74 98.15 41.8657 98.15 38.32C98.15 34.7743 95.2757 31.9 91.73 31.9C88.1843 31.9 85.31 34.7743 85.31 38.32C85.31 41.8657 88.1843 44.74 91.73 44.74Z" fill="#3658FF"/>
<path d="M268.76 61.66C269.1 62.2667 269.27 62.2233 269.27 61.53V37.76C269.27 36.1133 270.093 35.28 271.74 35.26L276.22 35.21C277.907 35.19 278.75 36.0267 278.75 37.72V75.79C278.75 76.4204 278.501 77.0253 278.057 77.473C277.613 77.9206 277.01 78.1747 276.38 78.18C274.56 78.1933 272.68 78.1733 270.74 78.12C269.593 78.0933 268.687 77.6033 268.02 76.65C261.98 67.9833 256.083 59.7367 250.33 51.91C250.063 51.55 249.93 51.5933 249.93 52.04L249.98 75.43C249.987 77.21 249.1 78.09 247.32 78.07L242.86 78.04C241.26 78.0267 240.46 77.2167 240.46 75.61V37.54C240.46 36.0333 241.21 35.2767 242.71 35.27L248.56 35.26C248.987 35.2601 249.408 35.3608 249.787 35.5538C250.166 35.7468 250.492 36.0265 250.74 36.37C254.687 41.8567 258.623 47.3667 262.55 52.9C264.62 55.81 267.02 58.55 268.76 61.66Z" fill="#1F1C5C"/>
<path d="M328.24 43.43C327.34 43.81 326.857 44.4367 326.79 45.31C326.63 47.46 325.84 52.32 329.19 52.32C333.857 52.3267 338.607 52.3333 343.44 52.34C344.933 52.3467 345.717 53.0933 345.79 54.58C345.87 56.1533 345.793 57.63 345.56 59.01C345.407 59.8833 344.89 60.3167 344.01 60.31L329.23 60.3C327.583 60.3 326.757 61.1233 326.75 62.77L326.73 67.27C326.723 68.8033 327.487 69.57 329.02 69.57L346.5 69.56C347.96 69.56 348.69 70.29 348.69 71.75V75.67C348.69 77.2433 347.903 78.03 346.33 78.03L319.28 78.02C318.75 78.02 318.241 77.8103 317.866 77.4371C317.491 77.0639 317.28 76.5578 317.28 76.03L317.27 37.5C317.27 36.02 318.013 35.28 319.5 35.28H346.56C348.087 35.28 348.843 36.04 348.83 37.56L348.79 40.99C348.777 42.5033 348.017 43.26 346.51 43.26L329.01 43.28C328.746 43.2799 328.484 43.3308 328.24 43.43Z" fill="#1F1C5C"/>
<path d="M409.27 70C412.5 69.9 413.51 67.56 413.5 64.78C413.487 55.2267 413.497 46.1967 413.53 37.69C413.53 36.0833 414.333 35.28 415.94 35.28L420.31 35.26C422.15 35.2533 423.063 36.17 423.05 38.01C422.983 46.2567 422.997 54.91 423.09 63.97C423.19 72.91 419.77 78.09 410.41 78.16C405.263 78.2 400.733 78.1533 396.82 78.02C388.74 77.75 385.78 71.87 385.89 64.34C386.023 55.2 386.027 46.4133 385.9 37.98C385.873 36.1733 386.763 35.27 388.57 35.27L393.04 35.26C394.707 35.2533 395.537 36.0833 395.53 37.75C395.503 46.7433 395.513 55.8233 395.56 64.99C395.58 68.1967 396.983 69.86 399.77 69.98C402.663 70.1 405.83 70.1067 409.27 70Z" fill="#1F1C5C"/>
<path d="M480.09 63.69L471.86 63.71C471.48 63.7126 471.116 63.8645 470.848 64.1323C470.58 64.4002 470.43 64.7625 470.43 65.14L470.39 75.52C470.383 77.2933 469.493 78.18 467.72 78.18L463.59 78.16C461.797 78.16 460.9 77.2633 460.9 75.47V37.74C460.9 36.06 461.737 35.2333 463.41 35.26C469.363 35.3467 475.36 35.3267 481.4 35.2C485.647 35.1133 488.873 35.5567 491.08 36.53C497.44 39.34 497.24 46.51 496.99 52.77C496.837 56.7633 495.247 59.67 492.22 61.49C491.754 61.7712 491.409 62.217 491.254 62.7402C491.099 63.2634 491.144 63.8267 491.38 64.32L496.09 74.18C497.297 76.7 496.507 77.99 493.72 78.05C492.653 78.0767 491.577 78.13 490.49 78.21C488.837 78.3233 487.65 77.6367 486.93 76.15L481.16 64.35C480.94 63.9033 480.583 63.6833 480.09 63.69ZM470.38 45.33L470.36 53.81C470.359 54.091 470.413 54.3696 470.519 54.6297C470.625 54.8898 470.782 55.1265 470.98 55.3261C471.177 55.5258 471.413 55.6845 471.672 55.7933C471.931 55.902 472.209 55.9587 472.49 55.96L483.16 55.99C484.36 55.9926 485.511 55.5139 486.363 54.6591C487.214 53.8042 487.695 52.6429 487.7 51.43L487.72 47.83C487.723 47.2277 487.608 46.6308 487.382 46.0734C487.156 45.5161 486.824 45.0092 486.404 44.582C485.984 44.1547 485.485 43.8153 484.935 43.5833C484.385 43.3513 483.796 43.2313 483.2 43.23L472.53 43.2C472.249 43.1987 471.97 43.2527 471.71 43.3591C471.45 43.4654 471.214 43.6219 471.014 43.8197C470.814 44.0175 470.655 44.2527 470.547 44.5118C470.438 44.7709 470.381 45.049 470.38 45.33Z" fill="#1F1C5C"/>
<path d="M558.46 67.46L545.55 67.47C545.058 67.4706 544.58 67.6294 544.186 67.923C543.791 68.2165 543.502 68.6292 543.36 69.1L541.15 76.49C541.008 76.9608 540.719 77.3735 540.324 77.667C539.93 77.9606 539.452 78.1194 538.96 78.12H533.25C532.889 78.1199 532.534 78.0347 532.212 77.8712C531.891 77.7077 531.612 77.4706 531.4 77.1791C531.187 76.8877 531.047 76.5502 530.99 76.1941C530.932 75.838 530.96 75.4734 531.07 75.13L543.4 36.82C543.548 36.3583 543.839 35.9556 544.231 35.6698C544.623 35.3841 545.095 35.2301 545.58 35.23L558.46 35.21C558.945 35.2101 559.417 35.3641 559.809 35.6498C560.201 35.9356 560.492 36.3383 560.64 36.8L573.02 75.17C573.13 75.5126 573.158 75.8763 573.101 76.2316C573.044 76.5869 572.904 76.9239 572.693 77.2151C572.482 77.5063 572.205 77.7436 571.884 77.9078C571.564 78.072 571.21 78.1584 570.85 78.16L565.11 78.18C564.618 78.1822 564.138 78.0258 563.742 77.734C563.346 77.4422 563.054 77.0306 562.91 76.56L560.65 69.09C560.508 68.6192 560.219 68.2065 559.824 67.913C559.43 67.6194 558.952 67.4606 558.46 67.46ZM550.84 43.6L546.87 56.07C546.785 56.3406 546.765 56.6276 546.812 56.9074C546.859 57.1872 546.971 57.452 547.14 57.6801C547.308 57.9083 547.529 58.0933 547.782 58.2201C548.036 58.347 548.316 58.412 548.6 58.41L555.4 58.36C555.685 58.3583 555.965 58.2903 556.218 58.1614C556.472 58.0324 556.691 57.8463 556.86 57.6177C557.028 57.3892 557.14 57.1247 557.187 56.8455C557.234 56.5663 557.214 56.2801 557.13 56.01C555.83 51.7967 554.557 47.74 553.31 43.84C553.21 43.52 553.027 43.2467 552.76 43.02C552.373 42.6933 551.937 42.6467 551.45 42.88C551.304 42.9527 551.175 43.0541 551.07 43.1778C550.966 43.3016 550.887 43.4453 550.84 43.6Z" fill="#1F1C5C"/>
<path d="M160.58 58.91C166.688 58.91 171.64 53.9583 171.64 47.85C171.64 41.7417 166.688 36.79 160.58 36.79C154.472 36.79 149.52 41.7417 149.52 47.85C149.52 53.9583 154.472 58.91 160.58 58.91Z" fill="#3658FF"/>
<path d="M106.88 62.42C109.448 62.42 111.53 60.3381 111.53 57.77C111.53 55.2019 109.448 53.12 106.88 53.12C104.312 53.12 102.23 55.2019 102.23 57.77C102.23 60.3381 104.312 62.42 106.88 62.42Z" fill="#3658FF"/>
<path d="M7.12 65.72C10.6049 65.72 13.43 62.8949 13.43 59.41C13.43 55.9251 10.6049 53.1 7.12 53.1C3.63508 53.1 0.809998 55.9251 0.809998 59.41C0.809998 62.8949 3.63508 65.72 7.12 65.72Z" fill="#3658FF"/>
<path d="M36.93 71.18C41.7459 71.18 45.65 67.2759 45.65 62.46C45.65 57.6441 41.7459 53.74 36.93 53.74C32.1141 53.74 28.21 57.6441 28.21 62.46C28.21 67.2759 32.1141 71.18 36.93 71.18Z" fill="#3658FF"/>
<path d="M139.84 72.33C143.573 72.33 146.6 69.3034 146.6 65.57C146.6 61.8366 143.573 58.81 139.84 58.81C136.107 58.81 133.08 61.8366 133.08 65.57C133.08 69.3034 136.107 72.33 139.84 72.33Z" fill="#3658FF"/>
<path d="M169.36 83.98C175.021 83.98 179.61 79.3909 179.61 73.73C179.61 68.0691 175.021 63.48 169.36 63.48C163.699 63.48 159.11 68.0691 159.11 73.73C159.11 79.3909 163.699 83.98 169.36 83.98Z" fill="#3658FF"/>
<path d="M80.03 79.99C82.6423 79.99 84.76 77.8723 84.76 75.26C84.76 72.6477 82.6423 70.53 80.03 70.53C77.4177 70.53 75.3 72.6477 75.3 75.26C75.3 77.8723 77.4177 79.99 80.03 79.99Z" fill="#3658FF"/>
<path d="M17.48 94.09C22.8427 94.09 27.19 89.7427 27.19 84.38C27.19 79.0173 22.8427 74.67 17.48 74.67C12.1173 74.67 7.76999 79.0173 7.76999 84.38C7.76999 89.7427 12.1173 94.09 17.48 94.09Z" fill="#3658FF"/>
<path d="M151.63 93.68C154.883 93.68 157.52 91.043 157.52 87.79C157.52 84.537 154.883 81.9 151.63 81.9C148.377 81.9 145.74 84.537 145.74 87.79C145.74 91.043 148.377 93.68 151.63 93.68Z" fill="#3658FF"/>
<path d="M90.68 105.34C95.6782 105.34 99.73 101.288 99.73 96.29C99.73 91.2918 95.6782 87.24 90.68 87.24C85.6818 87.24 81.63 91.2918 81.63 96.29C81.63 101.288 85.6818 105.34 90.68 105.34Z" fill="#3658FF"/>
<path d="M143.49 108.28C145.738 108.28 147.56 106.458 147.56 104.21C147.56 101.962 145.738 100.14 143.49 100.14C141.242 100.14 139.42 101.962 139.42 104.21C139.42 106.458 141.242 108.28 143.49 108.28Z" fill="#3658FF"/>
<path d="M30.04 113.64C33.4421 113.64 36.2 110.882 36.2 107.48C36.2 104.078 33.4421 101.32 30.04 101.32C26.6379 101.32 23.88 104.078 23.88 107.48C23.88 110.882 26.6379 113.64 30.04 113.64Z" fill="#3658FF"/>
<path d="M104.82 118.79C107.482 118.79 109.64 116.632 109.64 113.97C109.64 111.308 107.482 109.15 104.82 109.15C102.158 109.15 100 111.308 100 113.97C100 116.632 102.158 118.79 104.82 118.79Z" fill="#3658FF"/>
<path d="M77.98 120.6C81.001 120.6 83.45 118.151 83.45 115.13C83.45 112.109 81.001 109.66 77.98 109.66C74.959 109.66 72.51 112.109 72.51 115.13C72.51 118.151 74.959 120.6 77.98 120.6Z" fill="#3658FF"/>
<path d="M55.1 128.13C59.4907 128.13 63.05 124.571 63.05 120.18C63.05 115.789 59.4907 112.23 55.1 112.23C50.7093 112.23 47.15 115.789 47.15 120.18C47.15 124.571 50.7093 128.13 55.1 128.13Z" fill="#3658FF"/>
<path d="M34.18 134.46C38.0018 134.46 41.1 131.362 41.1 127.54C41.1 123.718 38.0018 120.62 34.18 120.62C30.3582 120.62 27.26 123.718 27.26 127.54C27.26 131.362 30.3582 134.46 34.18 134.46Z" fill="#3658FF"/>
<path d="M24.99 146.39C27.2709 146.39 29.12 144.541 29.12 142.26C29.12 139.979 27.2709 138.13 24.99 138.13C22.7091 138.13 20.86 139.979 20.86 142.26C20.86 144.541 22.7091 146.39 24.99 146.39Z" fill="#3658FF"/>
</g>
<defs>
<clipPath id="clip0_1_2">
<rect width="574" height="147" fill="white"/>
</clipPath>
</defs>
</svg>
